<svg width="512" height="480" viewBox="0 0 512 480" fill="none" xmlns="http://www.w3.org/2000/svg">
<path d="M497 0H381.1L316 45L241 59.24V15H30V90H79L0 105V465C0 473.399 6.599 480 15 480H497C505.401 480 512 473.399 512 465V15C512 6.599 505.401 0 497 0Z" fill="url(#paint0_linear)"/>
<path d="M349.425 94.756L381.1 0H15C6.716 0 0 6.716 0 15V105H335.198C341.65 105 347.379 100.875 349.425 94.756ZM76 60C67.599 60 61 53.401 61 45C61 36.599 67.599 30 76 30C84.401 30 91 36.599 91 45C91 53.401 84.401 60 76 60ZM136 60C127.599 60 121 53.401 121 45C121 36.599 127.599 30 136 30C144.401 30 151 36.599 151 45C151 53.401 144.401 60 136 60ZM196 60C187.599 60 181 53.401 181 45C181 36.599 187.599 30 196 30C204.401 30 211 36.599 211 45C211 53.401 204.401 60 196 60ZM241 195C241 186.709 234.291 180 226 180C217.709 180 211 186.709 211 195C211 200.51 210.615 205.364 210.099 210H121.901C121.385 205.364 121 200.51 121 195C121 186.709 114.291 180 106 180C97.709 180 91 186.709 91 195C91 252.966 120.421 275.556 134.986 285C120.445 294.428 91 317.01 91 375C91 383.291 97.709 390 106 390C114.291 390 121 383.291 121 375C121 369.49 121.385 364.636 121.901 360H210.099C210.615 364.636 211 369.49 211 375C211 383.291 217.709 390 226 390C234.291 390 241 383.291 241 375C241 317.034 211.582 294.446 197.014 285C211.58 275.555 241 252.998 241 195ZM200.693 330H131.307C139.417 316.747 151.699 309.152 166 301.837C180.301 309.152 192.583 316.747 200.693 330ZM166 268.163C151.699 260.848 139.417 253.253 131.307 240H200.693C192.583 253.253 180.301 260.848 166 268.163ZM406 360H286C277.709 360 271 366.709 271 375C271 383.291 277.709 390 286 390H406C414.291 390 421 383.291 421 375C421 366.709 414.291 360 406 360ZM406 300H286C277.709 300 271 306.709 271 315C271 323.291 277.709 330 286 330H406C414.291 330 421 323.291 421 315C421 306.709 414.291 300 406 300ZM406 240H286C277.709 240 271 246.709 271 255C271 263.291 277.709 270 286 270H406C414.291 270 421 263.291 421 255C421 246.709 414.291 240 406 240ZM271 195C271 203.291 277.709 210 286 210H406C414.291 210 421 203.291 421 195C421 186.709 414.291 180 406 180H286C277.709 180 271 186.709 271 195Z" fill="url(#paint1_linear)"/>
<defs>
<linearGradient id="paint0_linear" x1="256" y1="480" x2="256" y2="0" gradientUnits="userSpaceOnUse">
<stop stop-color="#2A348A"/>
<stop offset="1" stop-color="#5567FF"/>
</linearGradient>
<linearGradient id="paint1_linear" x1="210.5" y1="390" x2="210.5" y2="180" gradientUnits="userSpaceOnUse">
<stop stop-color="#9FB6FF"/>
<stop offset="0.9973" stop-color="#B3C5FF"/>
</linearGradient>
</defs>
</svg>
